<svg width="50" height="51" viewBox="0 0 50 51" fill="none" xmlns="http://www.w3.org/2000/svg">
<path d="M24.9999 5.05563C20.053 5.05584 15.2675 6.81629 11.4998 10.022C7.73212 13.2277 5.22802 17.6694 4.43559 22.5525C3.64316 27.4355 4.6141 32.4412 7.17468 36.6739C9.73527 40.9065 13.7184 44.09 18.4114 45.6546C19.4531 45.8369 19.8437 45.2119 19.8437 44.665C19.8437 44.1702 19.8176 42.5296 19.8176 40.7848C14.5832 41.7483 13.2291 39.5088 12.8124 38.3369C12.3501 37.1972 11.6171 36.1872 10.677 35.3942C9.94781 35.0035 8.90614 34.04 10.6509 34.014C11.3171 34.0863 11.9561 34.3181 12.5137 34.6898C13.0713 35.0616 13.5311 35.5622 13.8541 36.1494C14.139 36.6612 14.5221 37.1119 14.9815 37.4754C15.4409 37.8389 15.9676 38.1083 16.5312 38.2679C17.0949 38.4276 17.6845 38.4745 18.2663 38.4059C18.8481 38.3372 19.4107 38.1545 19.9217 37.8681C20.0119 36.809 20.4839 35.8187 21.2499 35.0817C16.6145 34.5609 11.7707 32.7639 11.7707 24.7953C11.7415 22.7247 12.5055 20.7215 13.9061 19.1963C13.2692 17.3968 13.3438 15.4219 14.1145 13.6755C14.1145 13.6755 15.8592 13.1286 19.8436 15.8109C23.2526 14.8733 26.8514 14.8733 30.2603 15.8109C34.2446 13.1026 35.9895 13.6755 35.9895 13.6755C36.7603 15.4219 36.8348 17.3968 36.1978 19.1963C37.6027 20.7189 38.3674 22.7239 38.3332 24.7953C38.3332 32.79 33.4634 34.5609 28.828 35.0817C29.3252 35.5857 29.7081 36.1907 29.9508 36.8557C30.1934 37.5207 30.2901 38.2302 30.2343 38.9359C30.2343 41.7224 30.2082 43.9619 30.2082 44.6651C30.2082 45.212 30.5988 45.863 31.6405 45.6547C36.3252 44.0773 40.2969 40.8864 42.8466 36.6516C45.3963 32.4167 46.358 27.4136 45.5601 22.5353C44.7621 17.657 42.2565 13.221 38.4905 10.0192C34.7244 6.8174 29.943 5.05821 24.9999 5.05563Z" fill="white"/>
</svg>
