<svg width="50" height="51" viewBox="0 0 50 51" fill="none" xmlns="http://www.w3.org/2000/svg">
<path d="M42.6459 4.54167H7.35425C6.95754 4.53616 6.56363 4.60886 6.19501 4.7556C5.82639 4.90234 5.4903 5.12026 5.20591 5.39691C4.92152 5.67356 4.69442 6.00352 4.53756 6.36794C4.38071 6.73237 4.29718 7.12413 4.29175 7.52084V43.2292C4.29718 43.6259 4.38071 44.0176 4.53756 44.3821C4.69442 44.7465 4.92152 45.0765 5.20591 45.3531C5.4903 45.6297 5.82639 45.8477 6.19501 45.9944C6.56363 46.1412 6.95754 46.2138 7.35425 46.2083H42.6459C43.0426 46.2138 43.4365 46.1412 43.8052 45.9944C44.1738 45.8477 44.5099 45.6297 44.7943 45.3531C45.0786 45.0765 45.3057 44.7465 45.4626 44.3821C45.6195 44.0176 45.703 43.6259 45.7084 43.2292V7.52084C45.703 7.12413 45.6195 6.73237 45.4626 6.36794C45.3057 6.00352 45.0786 5.67356 44.7943 5.39691C44.5099 5.12026 44.1738 4.90234 43.8052 4.7556C43.4365 4.60886 43.0426 4.53616 42.6459 4.54167ZM16.8542 39.4167H10.6042V20.6667H16.8542V39.4167ZM13.7292 18.0417C12.8673 18.0417 12.0406 17.6993 11.4312 17.0898C10.8217 16.4803 10.4792 15.6536 10.4792 14.7917C10.4792 13.9297 10.8217 13.1031 11.4312 12.4936C12.0406 11.8841 12.8673 11.5417 13.7292 11.5417C14.1869 11.4898 14.6504 11.5351 15.0894 11.6748C15.5284 11.8144 15.9329 12.0452 16.2765 12.352C16.62 12.6588 16.8949 13.0348 17.0831 13.4552C17.2714 13.8756 17.3687 14.331 17.3687 14.7917C17.3687 15.2523 17.2714 15.7077 17.0831 16.1282C16.8949 16.5486 16.62 16.9245 16.2765 17.2313C15.9329 17.5382 15.5284 17.7689 15.0894 17.9086C14.6504 18.0482 14.1869 18.0936 13.7292 18.0417ZM39.3959 39.4167H33.1459V29.3542C33.1459 26.8333 32.2501 25.1875 29.9792 25.1875C29.2765 25.1927 28.5921 25.4131 28.0185 25.8191C27.4448 26.2251 27.0094 26.7972 26.7709 27.4583C26.6079 27.948 26.5372 28.4637 26.5626 28.9792V39.3958H20.3126C20.3126 39.3958 20.3126 22.3542 20.3126 20.6458H26.5626V23.2917C27.1304 22.3065 27.9561 21.4948 28.951 20.9442C29.9459 20.3935 31.0721 20.1247 32.2084 20.1667C36.3751 20.1667 39.3959 22.8542 39.3959 28.625V39.4167Z" fill="white"/>
</svg>
